<svg width="24" height="24" viewBox="0 0 24 24" fill="none" xmlns="http://www.w3.org/2000/svg">
<g filter="url(#filter0_d)">
<path d="M12.6051 3.05001L12.6051 3.04322C12.6051 2.71656 12.33 2.44434 12 2.44434C11.67 2.44434 11.3949 2.71656 11.3949 3.04322L11.3949 3.05005C11.388 3.98693 11.0776 4.84898 10.5576 5.54764C10.5085 5.61367 10.4574 5.67825 10.4046 5.74128C10.2238 5.95715 10.0219 6.15502 9.80212 6.3319C9.7429 6.37957 9.68239 6.42571 9.62064 6.47026C8.89908 6.99092 8.00896 7.29538 7.0495 7.28989L7.04241 7.28993C6.71554 7.2938 6.44444 7.56446 6.44444 7.88878C6.44444 8.2131 6.71554 8.48376 7.04241 8.48763L7.0495 8.48767C8.00729 8.48219 8.89597 8.78778 9.61685 9.30852C9.6793 9.35363 9.7405 9.40036 9.80037 9.44864C10.0195 9.62536 10.2209 9.82286 10.4014 10.0381C10.4546 10.1015 10.506 10.1665 10.5555 10.2329C11.0768 10.9327 11.388 11.7948 11.3949 12.7276L11.3949 12.7343C11.3949 13.061 11.67 13.3332 12 13.3332C12.33 13.3332 12.6051 13.061 12.6051 12.7343L12.6051 12.7275C12.612 11.7906 12.9224 10.9286 13.4424 10.2299C13.4915 10.1639 13.5426 10.0993 13.5954 10.0363C13.7762 9.82041 13.9781 9.62254 14.1979 9.44566C14.2571 9.39799 14.3176 9.35185 14.3794 9.30729C15.1009 8.78664 15.991 8.48218 16.9505 8.48767L16.9576 8.48763C17.2845 8.48376 17.5556 8.2131 17.5556 7.88878C17.5556 7.56446 17.2845 7.2938 16.9576 7.28993L16.9505 7.28989C15.9927 7.29537 15.104 6.98978 14.3832 6.46904C14.3207 6.42393 14.2595 6.3772 14.1996 6.32892C13.9805 6.1522 13.7791 5.95469 13.5986 5.73945C13.5454 5.67602 13.494 5.61105 13.4445 5.54461C12.9232 4.84482 12.612 3.98279 12.6051 3.05001Z" fill="white"/>
<path fill-rule="evenodd" clip-rule="evenodd" d="M20 8C20 8.489 19.6131 8.8802 19.1294 8.8802C15.6953 8.86063 12.8996 11.6479 12.8706 15.1198C12.8706 15.6088 12.4837 16 12 16C11.5163 16 11.1294 15.6088 11.1294 15.1198C11.1004 11.6479 8.30472 8.86063 4.87062 8.88019C4.38694 8.88019 4 8.489 4 8C4 7.511 4.38694 7.1198 4.87062 7.1198C8.30472 7.13936 11.1004 4.35208 11.1294 0.880196C11.1294 0.391199 11.5163 -2.12203e-08 12 0C12.4837 2.12209e-08 12.8706 0.391199 12.8706 0.880196C12.8996 4.3423 15.6953 7.13936 19.1294 7.1198C19.6131 7.1198 20 7.511 20 8ZM7.48399 8C9.57667 7.23408 11.2362 5.56147 12.0007 3.45209C12.766 5.55829 14.4251 7.23255 16.5175 7.99947C14.4248 8.76491 12.765 10.437 12 12.5459C11.2352 10.4375 9.57601 8.76568 7.48399 8Z" fill="#FFA800"/>
</g>
<defs>
<filter id="filter0_d" x="0" y="0" width="24" height="24" filterUnits="userSpaceOnUse" color-interpolation-filters="sRGB">
<feFlood flood-opacity="0" result="BackgroundImageFix"/>
<feColorMatrix in="SourceAlpha" type="matrix" values="0 0 0 0 0 0 0 0 0 0 0 0 0 0 0 0 0 0 127 0"/>
<feOffset dy="4"/>
<feGaussianBlur stdDeviation="2"/>
<feColorMatrix type="matrix" values="0 0 0 0 0 0 0 0 0 0 0 0 0 0 0 0 0 0 0.25 0"/>
<feBlend mode="normal" in2="BackgroundImageFix" result="effect1_dropShadow"/>
<feBlend mode="normal" in="SourceGraphic" in2="effect1_dropShadow" result="shape"/>
</filter>
</defs>
</svg>
