<svg width="1366" height="43" viewBox="0 0 1366 43" fill="none" xmlns="http://www.w3.org/2000/svg">
<g filter="url(#filter0_d)">
<path d="M1370 0V21.6714C1364.06 20.9755 1358.35 19.9814 1352.17 19.6832C1348.84 19.4844 1346.22 19.0867 1343.61 18.2915C1339.09 16.8997 1334.33 16.005 1328.15 16.7009C1321.25 17.4962 1315.31 18.9873 1307.46 18.9873C1298.66 18.9873 1289.39 19.9814 1280.59 20.8761C1275.84 21.3732 1271.79 20.9755 1267.51 19.9814C1261.09 18.4903 1254.43 18.4903 1247.06 19.0867C1237.31 19.882 1227.33 21.8702 1217.34 19.385C1215.67 18.9873 1213.06 18.9873 1211.16 19.2856C1205.69 20.0808 1200.22 19.882 1194.75 20.0809C1186.9 20.3791 1179.05 21.075 1170.97 20.5779C1168.83 20.4785 1165.02 20.7767 1164.31 21.3732C1160.03 24.6537 1153.14 25.1508 1145.29 25.449C1142.43 25.5484 1139.82 25.7472 1137.68 24.9519C1136.01 24.3555 1134.11 24.1567 1131.97 24.1567C1126.5 24.0573 1121.03 23.759 1115.56 23.6596C1111.05 23.5602 1107 24.0573 1103.91 25.6478C1102.49 26.4431 1100.58 26.6419 1098.44 26.8407C1093.45 27.2384 1088.69 26.7413 1084.41 25.6478C1081.32 24.9519 1078.71 24.9519 1075.38 25.0514C1067.53 25.449 1059.45 25.5484 1051.6 25.946C1046.13 26.2443 1040.9 25.1508 1035.67 25.3496C1026.39 25.7472 1017.36 25.7472 1008.32 24.6537C1000.47 23.759 991.438 24.3555 984.304 22.1685C983.591 21.9696 982.64 22.1685 981.927 22.1685C978.36 22.3673 974.793 22.5661 971.226 21.8702C969.561 21.4726 967.421 21.7708 966.47 22.3673C963.379 24.2561 959.812 23.8584 956.007 22.8643C954.581 22.4667 953.154 22.6655 951.489 22.5661C940.789 22.3673 929.85 23.3614 919.15 21.9696C912.492 21.075 905.358 22.1685 898.7 21.075C897.511 20.8761 896.084 21.2738 894.658 21.2738C890.853 21.4726 888.951 23.262 885.859 23.262C875.159 23.4608 864.696 23.759 855.184 26.0455C854.233 26.2443 852.806 26.2443 851.618 26.1449C845.673 25.5484 839.966 26.3437 834.259 26.9401C828.314 27.4372 822.369 28.1331 816.425 27.7354C812.62 27.4372 809.766 26.6419 805.248 27.0396C796.688 27.9343 787.89 28.5307 779.805 30.1213C776.238 30.8171 772.909 31.016 769.342 30.9166C767.915 30.9166 766.726 30.9166 765.3 31.016C756.977 31.6124 748.654 33.1036 739.856 32.3083C737.954 32.1095 736.527 32.7059 734.863 32.9048C729.631 33.6006 724.162 34.5947 718.455 33.6006C714.65 33.0042 711.084 32.8054 707.041 32.7059C692.06 32.5071 678.031 30.6183 664.477 28.1331C660.91 27.5366 658.056 27.5366 654.727 27.9343C650.447 28.4313 646.642 29.4254 642.362 29.6242C635.704 29.9225 629.046 29.5248 622.626 28.5307C620.961 28.2325 618.583 27.7354 617.156 28.3319C612.163 30.1213 607.645 29.1272 602.889 28.3319C597.182 27.2384 591.951 27.8348 587.433 29.823C585.768 30.6183 583.628 31.016 581.012 31.016C572.928 31.2148 565.081 31.9107 558.185 33.7994C556.044 34.2965 553.667 35.2906 550.575 34.7936C542.728 33.6006 533.692 34.2965 526.083 32.5071C521.565 31.4136 517.76 31.3142 512.291 32.4077C503.731 34.1971 494.457 33.6006 485.659 31.6124C480.665 30.4195 475.909 28.6301 469.251 29.9225C469.013 30.0219 468.3 29.823 467.824 29.7236C463.306 28.3319 457.362 27.9343 452.844 26.4431C443.332 23.1626 432.394 22.0691 420.266 23.759C419.315 23.8584 418.126 23.759 417.175 23.759C408.377 23.1626 398.865 23.8584 390.305 22.3673C389.829 22.2679 388.878 22.3673 388.402 22.4667C386.262 23.262 383.884 22.9637 381.507 22.8643C376.751 22.7649 372.233 22.5661 367.477 22.4667C360.105 22.2679 354.398 24.1567 347.978 25.1508C344.649 25.6478 341.32 26.2443 337.991 25.7472C328.955 24.5543 320.157 23.262 311.358 21.6714C307.554 20.9755 303.511 21.4726 299.707 20.6773C289.482 18.4903 278.306 17.8938 266.654 18.3909C259.52 18.6891 252.149 19.2856 245.015 17.8938C241.924 17.2974 237.881 16.8003 234.314 16.9991C226.23 17.4962 218.383 17.9932 210.298 18.0926C203.64 18.1921 196.981 19.5838 190.323 18.0926C186.994 17.3968 183.903 18.0926 181.05 18.7885C172.489 20.6773 163.929 22.2679 153.704 21.8702C149.186 21.7708 145.143 21.2738 140.863 20.7767C138.01 20.4785 134.918 20.2797 133.492 21.572C131.589 23.262 128.498 23.3614 125.169 23.3614C121.126 23.3614 117.084 23.262 113.042 23.3614C106.383 23.6596 100.201 23.6596 93.7806 22.6655C89.0248 21.8702 84.269 20.6773 79.0376 21.075C75.7085 21.2738 72.3795 21.0749 69.2882 20.6773C62.3923 19.882 54.783 19.385 48.6004 20.4785C35.0464 23.0632 20.3034 22.9637 6.74939 24.6537C3.42033 25.0514 0.0912709 24.8525 -3 24.6537V0H1370Z" fill="white"/>
</g>
<defs>
<filter id="filter0_d" x="-7" y="0" width="1381" height="42.929" filterUnits="userSpaceOnUse" color-interpolation-filters="sRGB">
<feFlood flood-opacity="0" result="BackgroundImageFix"/>
<feColorMatrix in="SourceAlpha" type="matrix" values="0 0 0 0 0 0 0 0 0 0 0 0 0 0 0 0 0 0 127 0"/>
<feOffset dy="4"/>
<feGaussianBlur stdDeviation="2"/>
<feColorMatrix type="matrix" values="0 0 0 0 0 0 0 0 0 0 0 0 0 0 0 0 0 0 0.25 0"/>
<feBlend mode="normal" in2="BackgroundImageFix" result="effect1_dropShadow"/>
<feBlend mode="normal" in="SourceGraphic" in2="effect1_dropShadow" result="shape"/>
</filter>
</defs>
</svg>
